# xmcd CD database file
#
# Track frame offsets:
#	150
#	26802
#	53070
#	88811
#	122689
#	144159
#	180568
#	190316
#	210454
#
# Disc length: 3330 seconds
#
# Revision: 0
# Processed by: cddbd v1.5.2PL0 Copyright (c) Steve Scherf et al.
# Submitted via: CDex 1.51
#
DISCID=780d0009
DTITLE=Kitaro - Celestial Scenery 08-Divine Spirits
DYEAR=2011
DGENRE=New Age
TTITLE0=God Of Thunder
TTITLE1=In The Beginning
TTITLE2=Mandala (live)
TTITLE3=The Light Of The Spirit
TTITLE4=Spirit Of Water
TTITLE5=Strength
TTITLE6=The Escape
TTITLE7=Lord Of Wind
TTITLE8=Reimei
EXTD=YEAR: 2011
EXTT0=
EXTT1=
EXTT2=
EXTT3=
EXTT4=
EXTT5=
EXTT6=
EXTT7=
EXTT8=
PLAYORDER=
